<svg width="72" height="60" viewBox="0 0 72 60" fill="none" xmlns="http://www.w3.org/2000/svg">
<path d="M46.3473 52.0958L38.4431 49.2216L46.3473 32.3353V52.0958Z" fill="#FE2015"/>
<path d="M27.3054 60V28.0239L34.8503 24.7904V43.1138L46.3473 20.1198L53.8922 17.2455V35.5689L64.6707 13.2934L71.8563 10.4192L53.8922 49.2216L46.3473 52.0958V32.3353L34.8503 57.1257L27.3054 60Z" fill="#011DA9"/>
<path d="M27.3054 28.024L19.7605 24.7904V42.0359L7.54491 20.1198L0 17.6048V48.8623L7.54491 52.0958V35.2096L19.4012 56.7665L27.3054 60V28.024Z" fill="#069330"/>
<path d="M7.18563 14.3712L0 17.6048L7.54491 20.1197L15.0898 17.2455L7.18563 14.3712Z" fill="#FFC001"/>
<path d="M15.0898 17.2455L19.7605 9.70059L27.3054 12.9341L19.7605 24.7904L15.0898 17.2455Z" fill="#069330"/>
<path d="M26.9461 6.82635L19.7605 9.70061L27.3054 12.9341L34.491 9.70061L26.9461 6.82635Z" fill="#FFC001"/>
<path d="M34.491 24.6258V9.70059L27.3054 12.9341L19.7605 24.7904L26.9461 21.1976L34.491 24.6258Z" fill="#011DA9"/>
<path d="M26.9461 21.1976L19.7605 24.7904L27.3054 28.0239L34.8503 24.7904L26.9461 21.1976Z" fill="#FFC001"/>
<path d="M15.0898 17.2455L7.54491 20.1198L19.7605 42.0359V24.7904L15.0898 17.2455Z" fill="#FE2015"/>
<path d="M37.7245 2.87424L34.491 9.70058V24.6186L34.8503 24.7904V43.1138L46.3473 20.1197L38.8024 17.6048L44.9102 6.10777L37.7245 2.87424Z" fill="#069330"/>
<path d="M44.9102 0L37.7245 2.87425L44.9102 6.10778L52.4551 2.87425L44.9102 0Z" fill="#FFC001"/>
<path d="M52.4551 16.6982V2.87424L44.9102 6.10777L38.8024 17.6048L46.3473 14.3712L52.4551 16.6982Z" fill="#FE2015"/>
<path d="M46.3473 14.3712L38.8024 17.6048L46.3473 20.1197L53.8922 17.2455L46.3473 14.3712Z" fill="#FFC001"/>
<path d="M57.485 10.4192L53.8922 17.2455V35.5689L64.6707 13.2934L57.485 10.4192Z" fill="#069330"/>
<path d="M64.6707 7.54492L57.485 10.4192L64.6707 13.2934L71.8563 10.4192L64.6707 7.54492Z" fill="#FFC001"/>
<path d="M15.0898 48.8623L7.54491 52.0958V35.2096L15.0898 48.8623Z" fill="#011DA9"/>
</svg>
